<svg xmlns="http://www.w3.org/2000/svg" xmlns:xlink="http://www.w3.org/1999/xlink" viewBox="0 0 19.99 21.79"><defs><style>.cls-1{fill:url(#New_Gradient_Swatch_1);}.cls-2{fill:url(#New_Gradient_Swatch_1-2);}.cls-3{fill:url(#New_Gradient_Swatch_1-3);}.cls-4{fill:url(#New_Gradient_Swatch_1-4);}</style><linearGradient id="New_Gradient_Swatch_1" x1="8.29" y1="8.51" x2="8.43" y2="14.49" gradientUnits="userSpaceOnUse"><stop offset="0" stop-color="#0058bc"/><stop offset="0.99" stop-color="#43c5e2"/></linearGradient><linearGradient id="New_Gradient_Swatch_1-2" x1="2.32" y1="5.67" x2="2.18" y2="21.97" xlink:href="#New_Gradient_Swatch_1"/><linearGradient id="New_Gradient_Swatch_1-3" x1="117.38" y1="-104.65" x2="117.24" y2="-88.35" gradientTransform="matrix(-0.5, 0.87, -0.87, -0.5, -16.5, -143.91)" xlink:href="#New_Gradient_Swatch_1"/><linearGradient id="New_Gradient_Swatch_1-4" x1="-13.18" y1="-131.89" x2="-13.33" y2="-115.6" gradientTransform="translate(112.51 -58.13) rotate(-120)" xlink:href="#New_Gradient_Swatch_1"/></defs><title>logoResurs 1</title><g id="Lager_2" data-name="Lager 2"><g id="Layer_1" data-name="Layer 1"><polygon class="cls-1" points="5.8 14.55 5.8 8.56 10.98 11.56 5.8 14.55"/><polygon class="cls-2" points="0 21.79 0 5.4 0.07 5.44 2.05 6.59 4.53 8.02 4.53 19.17 0 21.79"/><polygon class="cls-3" points="2.64 0 16.83 8.19 16.76 8.23 14.78 9.38 12.3 10.8 2.65 5.23 2.64 0"/><polygon class="cls-4" points="19.99 13.19 5.8 21.38 5.8 21.3 5.8 19.01 5.81 16.15 15.46 10.57 19.99 13.19"/></g></g></svg>